<svg xmlns="http://www.w3.org/2000/svg" viewBox="0 0 240 240" width="240" height="240" fill="none" stroke="#2dd4c8" stroke-width="1.4">
  <defs>
    <pattern id="girih" x="0" y="0" width="120" height="120" patternUnits="userSpaceOnUse">
      
      <g transform="translate(60 60)">
        <rect x="-34" y="-34" width="68" height="68" transform="rotate(0)"></rect>
        <rect x="-34" y="-34" width="68" height="68" transform="rotate(45)"></rect>
        <circle cx="0" cy="0" r="14"></circle>
      </g>
      
      <path d="M60 0 L60 26 M60 94 L60 120 M0 60 L26 60 M94 60 L120 60"></path>
      
      <g transform="translate(0 0)"><rect x="-20" y="-20" width="40" height="40" transform="rotate(45)"></rect></g>
      <g transform="translate(120 0)"><rect x="-20" y="-20" width="40" height="40" transform="rotate(45)"></rect></g>
      <g transform="translate(0 120)"><rect x="-20" y="-20" width="40" height="40" transform="rotate(45)"></rect></g>
      <g transform="translate(120 120)"><rect x="-20" y="-20" width="40" height="40" transform="rotate(45)"></rect></g>
    </pattern>
  </defs>
  <rect x="0" y="0" width="240" height="240" fill="url(#girih)"></rect>
</svg>